<svg xmlns="http://www.w3.org/2000/svg" width="1000" height="620" viewBox="0 0 1000 620">
<rect width="100%" height="100%" fill="white"/>
<text x="500.0" y="34" text-anchor="middle" font-family="Arial, sans-serif" font-size="22" font-weight="700">Average Prefill Activation Norms Across 50 Prompts</text>
<text x="24" y="310.0" text-anchor="middle" font-family="Arial, sans-serif" font-size="14" transform="rotate(-90 24 310.0)">Activation l2_norm</text>
<line x1="90" y1="70.00" x2="965" y2="70.00" stroke="#e5e7eb"/>
<text x="80" y="74.00" text-anchor="end" font-family="Arial, sans-serif" font-size="12" fill="#374151">75175</text>
<line x1="90" y1="166.00" x2="965" y2="166.00" stroke="#e5e7eb"/>
<text x="80" y="170.00" text-anchor="end" font-family="Arial, sans-serif" font-size="12" fill="#374151">67950</text>
<line x1="90" y1="262.00" x2="965" y2="262.00" stroke="#e5e7eb"/>
<text x="80" y="266.00" text-anchor="end" font-family="Arial, sans-serif" font-size="12" fill="#374151">60725</text>
<line x1="90" y1="358.00" x2="965" y2="358.00" stroke="#e5e7eb"/>
<text x="80" y="362.00" text-anchor="end" font-family="Arial, sans-serif" font-size="12" fill="#374151">53501</text>
<line x1="90" y1="454.00" x2="965" y2="454.00" stroke="#e5e7eb"/>
<text x="80" y="458.00" text-anchor="end" font-family="Arial, sans-serif" font-size="12" fill="#374151">46276</text>
<line x1="90" y1="550.00" x2="965" y2="550.00" stroke="#e5e7eb"/>
<text x="80" y="554.00" text-anchor="end" font-family="Arial, sans-serif" font-size="12" fill="#374151">39051</text>
<line x1="90" y1="550" x2="965" y2="550" stroke="#111827"/>
<line x1="90" y1="70" x2="90" y2="550" stroke="#111827"/>
<polyline points="90.00,509.69 187.22,438.77 284.44,456.21 381.67,462.93 478.89,464.71 576.11,516.90 673.33,447.96 770.56,444.53 867.78,499.66 965.00,417.72" fill="none" stroke="#93c5fd" stroke-width="2" stroke-opacity="0.65"/>
<circle cx="90.00" cy="509.69" r="4" fill="#93c5fd" fill-opacity="0.65"/>
<circle cx="187.22" cy="438.77" r="4" fill="#93c5fd" fill-opacity="0.65"/>
<circle cx="284.44" cy="456.21" r="4" fill="#93c5fd" fill-opacity="0.65"/>
<circle cx="381.67" cy="462.93" r="4" fill="#93c5fd" fill-opacity="0.65"/>
<circle cx="478.89" cy="464.71" r="4" fill="#93c5fd" fill-opacity="0.65"/>
<circle cx="576.11" cy="516.90" r="4" fill="#93c5fd" fill-opacity="0.65"/>
<circle cx="673.33" cy="447.96" r="4" fill="#93c5fd" fill-opacity="0.65"/>
<circle cx="770.56" cy="444.53" r="4" fill="#93c5fd" fill-opacity="0.65"/>
<circle cx="867.78" cy="499.66" r="4" fill="#93c5fd" fill-opacity="0.65"/>
<circle cx="965.00" cy="417.72" r="4" fill="#93c5fd" fill-opacity="0.65"/>
<polyline points="90.00,124.99 187.22,163.91 284.44,176.45 381.67,103.67 478.89,103.10 576.11,114.71 673.33,176.89 770.56,197.03 867.78,315.88 965.00,177.16" fill="none" stroke="#93c5fd" stroke-width="2" stroke-opacity="0.65"/>
<circle cx="90.00" cy="124.99" r="4" fill="#93c5fd" fill-opacity="0.65"/>
<circle cx="187.22" cy="163.91" r="4" fill="#93c5fd" fill-opacity="0.65"/>
<circle cx="284.44" cy="176.45" r="4" fill="#93c5fd" fill-opacity="0.65"/>
<circle cx="381.67" cy="103.67" r="4" fill="#93c5fd" fill-opacity="0.65"/>
<circle cx="478.89" cy="103.10" r="4" fill="#93c5fd" fill-opacity="0.65"/>
<circle cx="576.11" cy="114.71" r="4" fill="#93c5fd" fill-opacity="0.65"/>
<circle cx="673.33" cy="176.89" r="4" fill="#93c5fd" fill-opacity="0.65"/>
<circle cx="770.56" cy="197.03" r="4" fill="#93c5fd" fill-opacity="0.65"/>
<circle cx="867.78" cy="315.88" r="4" fill="#93c5fd" fill-opacity="0.65"/>
<circle cx="965.00" cy="177.16" r="4" fill="#93c5fd" fill-opacity="0.65"/>
<polyline points="90.00,239.17 187.22,293.80 284.44,291.51 381.67,267.09 478.89,279.67 576.11,300.81 673.33,302.65 770.56,339.10 867.78,382.40 965.00,321.95" fill="none" stroke="#2563eb" stroke-width="2" stroke-opacity="1.0"/>
<circle cx="90.00" cy="239.17" r="4" fill="#2563eb" fill-opacity="1.0"/>
<circle cx="187.22" cy="293.80" r="4" fill="#2563eb" fill-opacity="1.0"/>
<circle cx="284.44" cy="291.51" r="4" fill="#2563eb" fill-opacity="1.0"/>
<circle cx="381.67" cy="267.09" r="4" fill="#2563eb" fill-opacity="1.0"/>
<circle cx="478.89" cy="279.67" r="4" fill="#2563eb" fill-opacity="1.0"/>
<circle cx="576.11" cy="300.81" r="4" fill="#2563eb" fill-opacity="1.0"/>
<circle cx="673.33" cy="302.65" r="4" fill="#2563eb" fill-opacity="1.0"/>
<circle cx="770.56" cy="339.10" r="4" fill="#2563eb" fill-opacity="1.0"/>
<circle cx="867.78" cy="382.40" r="4" fill="#2563eb" fill-opacity="1.0"/>
<circle cx="965.00" cy="321.95" r="4" fill="#2563eb" fill-opacity="1.0"/>
<line x1="90.00" y1="550" x2="90.00" y2="556" stroke="#111827"/>
<text x="90.00" y="572" text-anchor="middle" font-family="Arial, sans-serif" font-size="12" fill="#374151">1</text>
<line x1="187.22" y1="550" x2="187.22" y2="556" stroke="#111827"/>
<text x="187.22" y="572" text-anchor="middle" font-family="Arial, sans-serif" font-size="12" fill="#374151">2</text>
<line x1="284.44" y1="550" x2="284.44" y2="556" stroke="#111827"/>
<text x="284.44" y="572" text-anchor="middle" font-family="Arial, sans-serif" font-size="12" fill="#374151">3</text>
<line x1="381.67" y1="550" x2="381.67" y2="556" stroke="#111827"/>
<text x="381.67" y="572" text-anchor="middle" font-family="Arial, sans-serif" font-size="12" fill="#374151">4</text>
<line x1="478.89" y1="550" x2="478.89" y2="556" stroke="#111827"/>
<text x="478.89" y="572" text-anchor="middle" font-family="Arial, sans-serif" font-size="12" fill="#374151">5</text>
<line x1="576.11" y1="550" x2="576.11" y2="556" stroke="#111827"/>
<text x="576.11" y="572" text-anchor="middle" font-family="Arial, sans-serif" font-size="12" fill="#374151">6</text>
<line x1="673.33" y1="550" x2="673.33" y2="556" stroke="#111827"/>
<text x="673.33" y="572" text-anchor="middle" font-family="Arial, sans-serif" font-size="12" fill="#374151">7</text>
<line x1="770.56" y1="550" x2="770.56" y2="556" stroke="#111827"/>
<text x="770.56" y="572" text-anchor="middle" font-family="Arial, sans-serif" font-size="12" fill="#374151">8</text>
<line x1="867.78" y1="550" x2="867.78" y2="556" stroke="#111827"/>
<text x="867.78" y="572" text-anchor="middle" font-family="Arial, sans-serif" font-size="12" fill="#374151">9</text>
<line x1="965.00" y1="550" x2="965.00" y2="556" stroke="#111827"/>
<text x="965.00" y="572" text-anchor="middle" font-family="Arial, sans-serif" font-size="12" fill="#374151">10</text>
<text x="527.5" y="596" text-anchor="middle" font-family="Arial, sans-serif" font-size="14" fill="#111827">Prefill token index</text>
</svg>
