<svg xmlns="http://www.w3.org/2000/svg" width="1000" height="620" viewBox="0 0 1000 620">
<rect width="100%" height="100%" fill="white"/>
<text x="500.0" y="34" text-anchor="middle" font-family="Arial, sans-serif" font-size="22" font-weight="700">Prompt 2: Activation Norms</text>
<text x="24" y="287.5" text-anchor="middle" font-family="Arial, sans-serif" font-size="14" transform="rotate(-90 24 287.5)">Activation l2_norm</text>
<line x1="90" y1="70.00" x2="965" y2="70.00" stroke="#e5e7eb"/>
<text x="80" y="74.00" text-anchor="end" font-family="Arial, sans-serif" font-size="12" fill="#374151">65355</text>
<line x1="90" y1="157.00" x2="965" y2="157.00" stroke="#e5e7eb"/>
<text x="80" y="161.00" text-anchor="end" font-family="Arial, sans-serif" font-size="12" fill="#374151">60356</text>
<line x1="90" y1="244.00" x2="965" y2="244.00" stroke="#e5e7eb"/>
<text x="80" y="248.00" text-anchor="end" font-family="Arial, sans-serif" font-size="12" fill="#374151">55357</text>
<line x1="90" y1="331.00" x2="965" y2="331.00" stroke="#e5e7eb"/>
<text x="80" y="335.00" text-anchor="end" font-family="Arial, sans-serif" font-size="12" fill="#374151">50359</text>
<line x1="90" y1="418.00" x2="965" y2="418.00" stroke="#e5e7eb"/>
<text x="80" y="422.00" text-anchor="end" font-family="Arial, sans-serif" font-size="12" fill="#374151">45360</text>
<line x1="90" y1="505.00" x2="965" y2="505.00" stroke="#e5e7eb"/>
<text x="80" y="509.00" text-anchor="end" font-family="Arial, sans-serif" font-size="12" fill="#374151">40361</text>
<line x1="90" y1="505" x2="965" y2="505" stroke="#111827"/>
<line x1="90" y1="70" x2="90" y2="505" stroke="#111827"/>
<polyline points="90.00,475.00 215.00,342.18 340.00,256.87 465.00,100.00 590.00,132.64 715.00,202.44 840.00,160.21 965.00,292.17" fill="none" stroke="#2563eb" stroke-width="2" stroke-opacity="1.0"/>
<circle cx="90.00" cy="475.00" r="4" fill="#2563eb" fill-opacity="1.0"/>
<circle cx="215.00" cy="342.18" r="4" fill="#2563eb" fill-opacity="1.0"/>
<circle cx="340.00" cy="256.87" r="4" fill="#2563eb" fill-opacity="1.0"/>
<circle cx="465.00" cy="100.00" r="4" fill="#2563eb" fill-opacity="1.0"/>
<circle cx="590.00" cy="132.64" r="4" fill="#2563eb" fill-opacity="1.0"/>
<circle cx="715.00" cy="202.44" r="4" fill="#2563eb" fill-opacity="1.0"/>
<circle cx="840.00" cy="160.21" r="4" fill="#2563eb" fill-opacity="1.0"/>
<circle cx="965.00" cy="292.17" r="4" fill="#2563eb" fill-opacity="1.0"/>
<line x1="90.00" y1="505" x2="90.00" y2="511" stroke="#111827"/>
<text x="90.00" y="523" text-anchor="end" font-family="Arial, sans-serif" font-size="12" fill="#374151" transform="rotate(-35 90.00 523)">Of</text>
<line x1="215.00" y1="505" x2="215.00" y2="511" stroke="#111827"/>
<text x="215.00" y="523" text-anchor="end" font-family="Arial, sans-serif" font-size="12" fill="#374151" transform="rotate(-35 215.00 523)"> course</text>
<line x1="340.00" y1="505" x2="340.00" y2="511" stroke="#111827"/>
<text x="340.00" y="523" text-anchor="end" font-family="Arial, sans-serif" font-size="12" fill="#374151" transform="rotate(-35 340.00 523)">.</text>
<line x1="465.00" y1="505" x2="465.00" y2="511" stroke="#111827"/>
<text x="465.00" y="523" text-anchor="end" font-family="Arial, sans-serif" font-size="12" fill="#374151" transform="rotate(-35 465.00 523)"> The</text>
<line x1="590.00" y1="505" x2="590.00" y2="511" stroke="#111827"/>
<text x="590.00" y="523" text-anchor="end" font-family="Arial, sans-serif" font-size="12" fill="#374151" transform="rotate(-35 590.00 523)"> practical</text>
<line x1="715.00" y1="505" x2="715.00" y2="511" stroke="#111827"/>
<text x="715.00" y="523" text-anchor="end" font-family="Arial, sans-serif" font-size="12" fill="#374151" transform="rotate(-35 715.00 523)"> sequence</text>
<line x1="840.00" y1="505" x2="840.00" y2="511" stroke="#111827"/>
<text x="840.00" y="523" text-anchor="end" font-family="Arial, sans-serif" font-size="12" fill="#374151" transform="rotate(-35 840.00 523)"> is</text>
<line x1="965.00" y1="505" x2="965.00" y2="511" stroke="#111827"/>
<text x="965.00" y="523" text-anchor="end" font-family="Arial, sans-serif" font-size="12" fill="#374151" transform="rotate(-35 965.00 523)">:</text>
<text x="527.5" y="596" text-anchor="middle" font-family="Arial, sans-serif" font-size="14" fill="#111827">Prefill token index</text>
</svg>
