<svg xmlns="http://www.w3.org/2000/svg" width="1000" height="620" viewBox="0 0 1000 620">
<rect width="100%" height="100%" fill="white"/>
<text x="500.0" y="34" text-anchor="middle" font-family="Arial, sans-serif" font-size="22" font-weight="700">Prompt 8: Activation Norms</text>
<text x="24" y="287.5" text-anchor="middle" font-family="Arial, sans-serif" font-size="14" transform="rotate(-90 24 287.5)">Activation l2_norm</text>
<line x1="90" y1="70.00" x2="965" y2="70.00" stroke="#e5e7eb"/>
<text x="80" y="74.00" text-anchor="end" font-family="Arial, sans-serif" font-size="12" fill="#374151">63571</text>
<line x1="90" y1="157.00" x2="965" y2="157.00" stroke="#e5e7eb"/>
<text x="80" y="161.00" text-anchor="end" font-family="Arial, sans-serif" font-size="12" fill="#374151">61377</text>
<line x1="90" y1="244.00" x2="965" y2="244.00" stroke="#e5e7eb"/>
<text x="80" y="248.00" text-anchor="end" font-family="Arial, sans-serif" font-size="12" fill="#374151">59184</text>
<line x1="90" y1="331.00" x2="965" y2="331.00" stroke="#e5e7eb"/>
<text x="80" y="335.00" text-anchor="end" font-family="Arial, sans-serif" font-size="12" fill="#374151">56990</text>
<line x1="90" y1="418.00" x2="965" y2="418.00" stroke="#e5e7eb"/>
<text x="80" y="422.00" text-anchor="end" font-family="Arial, sans-serif" font-size="12" fill="#374151">54797</text>
<line x1="90" y1="505.00" x2="965" y2="505.00" stroke="#e5e7eb"/>
<text x="80" y="509.00" text-anchor="end" font-family="Arial, sans-serif" font-size="12" fill="#374151">52603</text>
<line x1="90" y1="505" x2="965" y2="505" stroke="#111827"/>
<line x1="90" y1="70" x2="90" y2="505" stroke="#111827"/>
<polyline points="90.00,190.36 199.38,463.68 308.75,464.87 418.12,278.87 527.50,200.79 636.88,460.84 746.25,100.00 855.62,113.57 965.00,475.00" fill="none" stroke="#2563eb" stroke-width="2" stroke-opacity="1.0"/>
<circle cx="90.00" cy="190.36" r="4" fill="#2563eb" fill-opacity="1.0"/>
<circle cx="199.38" cy="463.68" r="4" fill="#2563eb" fill-opacity="1.0"/>
<circle cx="308.75" cy="464.87" r="4" fill="#2563eb" fill-opacity="1.0"/>
<circle cx="418.12" cy="278.87" r="4" fill="#2563eb" fill-opacity="1.0"/>
<circle cx="527.50" cy="200.79" r="4" fill="#2563eb" fill-opacity="1.0"/>
<circle cx="636.88" cy="460.84" r="4" fill="#2563eb" fill-opacity="1.0"/>
<circle cx="746.25" cy="100.00" r="4" fill="#2563eb" fill-opacity="1.0"/>
<circle cx="855.62" cy="113.57" r="4" fill="#2563eb" fill-opacity="1.0"/>
<circle cx="965.00" cy="475.00" r="4" fill="#2563eb" fill-opacity="1.0"/>
<line x1="90.00" y1="505" x2="90.00" y2="511" stroke="#111827"/>
<text x="90.00" y="523" text-anchor="end" font-family="Arial, sans-serif" font-size="12" fill="#374151" transform="rotate(-35 90.00 523)">First</text>
<line x1="199.38" y1="505" x2="199.38" y2="511" stroke="#111827"/>
<text x="199.38" y="523" text-anchor="end" font-family="Arial, sans-serif" font-size="12" fill="#374151" transform="rotate(-35 199.38 523)">,</text>
<line x1="308.75" y1="505" x2="308.75" y2="511" stroke="#111827"/>
<text x="308.75" y="523" text-anchor="end" font-family="Arial, sans-serif" font-size="12" fill="#374151" transform="rotate(-35 308.75 523)"> acquire</text>
<line x1="418.12" y1="505" x2="418.12" y2="511" stroke="#111827"/>
<text x="418.12" y="523" text-anchor="end" font-family="Arial, sans-serif" font-size="12" fill="#374151" transform="rotate(-35 418.12 523)"> the</text>
<line x1="527.50" y1="505" x2="527.50" y2="511" stroke="#111827"/>
<text x="527.50" y="523" text-anchor="end" font-family="Arial, sans-serif" font-size="12" fill="#374151" transform="rotate(-35 527.50 523)"> necessary</text>
<line x1="636.88" y1="505" x2="636.88" y2="511" stroke="#111827"/>
<text x="636.88" y="523" text-anchor="end" font-family="Arial, sans-serif" font-size="12" fill="#374151" transform="rotate(-35 636.88 523)"> materials</text>
<line x1="746.25" y1="505" x2="746.25" y2="511" stroke="#111827"/>
<text x="746.25" y="523" text-anchor="end" font-family="Arial, sans-serif" font-size="12" fill="#374151" transform="rotate(-35 746.25 523)"> and</text>
<line x1="855.62" y1="505" x2="855.62" y2="511" stroke="#111827"/>
<text x="855.62" y="523" text-anchor="end" font-family="Arial, sans-serif" font-size="12" fill="#374151" transform="rotate(-35 855.62 523)"> then</text>
<line x1="965.00" y1="505" x2="965.00" y2="511" stroke="#111827"/>
<text x="965.00" y="523" text-anchor="end" font-family="Arial, sans-serif" font-size="12" fill="#374151" transform="rotate(-35 965.00 523)">:</text>
<text x="527.5" y="596" text-anchor="middle" font-family="Arial, sans-serif" font-size="14" fill="#111827">Prefill token index</text>
</svg>
