<svg xmlns="http://www.w3.org/2000/svg" width="1000" height="620" viewBox="0 0 1000 620">
<rect width="100%" height="100%" fill="white"/>
<text x="500.0" y="34" text-anchor="middle" font-family="Arial, sans-serif" font-size="22" font-weight="700">Prompt 9: Activation Norms</text>
<text x="24" y="287.5" text-anchor="middle" font-family="Arial, sans-serif" font-size="14" transform="rotate(-90 24 287.5)">Activation l2_norm</text>
<line x1="90" y1="70.00" x2="965" y2="70.00" stroke="#e5e7eb"/>
<text x="80" y="74.00" text-anchor="end" font-family="Arial, sans-serif" font-size="12" fill="#374151">66287</text>
<line x1="90" y1="157.00" x2="965" y2="157.00" stroke="#e5e7eb"/>
<text x="80" y="161.00" text-anchor="end" font-family="Arial, sans-serif" font-size="12" fill="#374151">60971</text>
<line x1="90" y1="244.00" x2="965" y2="244.00" stroke="#e5e7eb"/>
<text x="80" y="248.00" text-anchor="end" font-family="Arial, sans-serif" font-size="12" fill="#374151">55656</text>
<line x1="90" y1="331.00" x2="965" y2="331.00" stroke="#e5e7eb"/>
<text x="80" y="335.00" text-anchor="end" font-family="Arial, sans-serif" font-size="12" fill="#374151">50340</text>
<line x1="90" y1="418.00" x2="965" y2="418.00" stroke="#e5e7eb"/>
<text x="80" y="422.00" text-anchor="end" font-family="Arial, sans-serif" font-size="12" fill="#374151">45025</text>
<line x1="90" y1="505.00" x2="965" y2="505.00" stroke="#e5e7eb"/>
<text x="80" y="509.00" text-anchor="end" font-family="Arial, sans-serif" font-size="12" fill="#374151">39710</text>
<line x1="90" y1="505" x2="965" y2="505" stroke="#111827"/>
<line x1="90" y1="70" x2="90" y2="505" stroke="#111827"/>
<polyline points="90.00,266.62 215.00,227.33 340.00,100.00 465.00,120.41 590.00,110.88 715.00,475.00 840.00,332.32 965.00,330.40" fill="none" stroke="#2563eb" stroke-width="2" stroke-opacity="1.0"/>
<circle cx="90.00" cy="266.62" r="4" fill="#2563eb" fill-opacity="1.0"/>
<circle cx="215.00" cy="227.33" r="4" fill="#2563eb" fill-opacity="1.0"/>
<circle cx="340.00" cy="100.00" r="4" fill="#2563eb" fill-opacity="1.0"/>
<circle cx="465.00" cy="120.41" r="4" fill="#2563eb" fill-opacity="1.0"/>
<circle cx="590.00" cy="110.88" r="4" fill="#2563eb" fill-opacity="1.0"/>
<circle cx="715.00" cy="475.00" r="4" fill="#2563eb" fill-opacity="1.0"/>
<circle cx="840.00" cy="332.32" r="4" fill="#2563eb" fill-opacity="1.0"/>
<circle cx="965.00" cy="330.40" r="4" fill="#2563eb" fill-opacity="1.0"/>
<line x1="90.00" y1="505" x2="90.00" y2="511" stroke="#111827"/>
<text x="90.00" y="523" text-anchor="end" font-family="Arial, sans-serif" font-size="12" fill="#374151" transform="rotate(-35 90.00 523)">A</text>
<line x1="215.00" y1="505" x2="215.00" y2="511" stroke="#111827"/>
<text x="215.00" y="523" text-anchor="end" font-family="Arial, sans-serif" font-size="12" fill="#374151" transform="rotate(-35 215.00 523)"> concise</text>
<line x1="340.00" y1="505" x2="340.00" y2="511" stroke="#111827"/>
<text x="340.00" y="523" text-anchor="end" font-family="Arial, sans-serif" font-size="12" fill="#374151" transform="rotate(-35 340.00 523)"> tutorial</text>
<line x1="465.00" y1="505" x2="465.00" y2="511" stroke="#111827"/>
<text x="465.00" y="523" text-anchor="end" font-family="Arial, sans-serif" font-size="12" fill="#374151" transform="rotate(-35 465.00 523)"> would</text>
<line x1="590.00" y1="505" x2="590.00" y2="511" stroke="#111827"/>
<text x="590.00" y="523" text-anchor="end" font-family="Arial, sans-serif" font-size="12" fill="#374151" transform="rotate(-35 590.00 523)"> look</text>
<line x1="715.00" y1="505" x2="715.00" y2="511" stroke="#111827"/>
<text x="715.00" y="523" text-anchor="end" font-family="Arial, sans-serif" font-size="12" fill="#374151" transform="rotate(-35 715.00 523)"> like</text>
<line x1="840.00" y1="505" x2="840.00" y2="511" stroke="#111827"/>
<text x="840.00" y="523" text-anchor="end" font-family="Arial, sans-serif" font-size="12" fill="#374151" transform="rotate(-35 840.00 523)"> this</text>
<line x1="965.00" y1="505" x2="965.00" y2="511" stroke="#111827"/>
<text x="965.00" y="523" text-anchor="end" font-family="Arial, sans-serif" font-size="12" fill="#374151" transform="rotate(-35 965.00 523)">:</text>
<text x="527.5" y="596" text-anchor="middle" font-family="Arial, sans-serif" font-size="14" fill="#111827">Prefill token index</text>
</svg>
