<svg xmlns="http://www.w3.org/2000/svg" width="1000" height="620" viewBox="0 0 1000 620">
<rect width="100%" height="100%" fill="white"/>
<text x="500.0" y="34" text-anchor="middle" font-family="Arial, sans-serif" font-size="22" font-weight="700">Prompt 11: Activation Norms</text>
<text x="24" y="287.5" text-anchor="middle" font-family="Arial, sans-serif" font-size="14" transform="rotate(-90 24 287.5)">Activation l2_norm</text>
<line x1="90" y1="70.00" x2="965" y2="70.00" stroke="#e5e7eb"/>
<text x="80" y="74.00" text-anchor="end" font-family="Arial, sans-serif" font-size="12" fill="#374151">69440</text>
<line x1="90" y1="157.00" x2="965" y2="157.00" stroke="#e5e7eb"/>
<text x="80" y="161.00" text-anchor="end" font-family="Arial, sans-serif" font-size="12" fill="#374151">66034</text>
<line x1="90" y1="244.00" x2="965" y2="244.00" stroke="#e5e7eb"/>
<text x="80" y="248.00" text-anchor="end" font-family="Arial, sans-serif" font-size="12" fill="#374151">62629</text>
<line x1="90" y1="331.00" x2="965" y2="331.00" stroke="#e5e7eb"/>
<text x="80" y="335.00" text-anchor="end" font-family="Arial, sans-serif" font-size="12" fill="#374151">59224</text>
<line x1="90" y1="418.00" x2="965" y2="418.00" stroke="#e5e7eb"/>
<text x="80" y="422.00" text-anchor="end" font-family="Arial, sans-serif" font-size="12" fill="#374151">55818</text>
<line x1="90" y1="505.00" x2="965" y2="505.00" stroke="#e5e7eb"/>
<text x="80" y="509.00" text-anchor="end" font-family="Arial, sans-serif" font-size="12" fill="#374151">52413</text>
<line x1="90" y1="505" x2="965" y2="505" stroke="#111827"/>
<line x1="90" y1="70" x2="90" y2="505" stroke="#111827"/>
<polyline points="90.00,100.00 199.38,182.65 308.75,341.28 418.12,256.57 527.50,342.44 636.88,355.61 746.25,265.56 855.62,431.98 965.00,475.00" fill="none" stroke="#2563eb" stroke-width="2" stroke-opacity="1.0"/>
<circle cx="90.00" cy="100.00" r="4" fill="#2563eb" fill-opacity="1.0"/>
<circle cx="199.38" cy="182.65" r="4" fill="#2563eb" fill-opacity="1.0"/>
<circle cx="308.75" cy="341.28" r="4" fill="#2563eb" fill-opacity="1.0"/>
<circle cx="418.12" cy="256.57" r="4" fill="#2563eb" fill-opacity="1.0"/>
<circle cx="527.50" cy="342.44" r="4" fill="#2563eb" fill-opacity="1.0"/>
<circle cx="636.88" cy="355.61" r="4" fill="#2563eb" fill-opacity="1.0"/>
<circle cx="746.25" cy="265.56" r="4" fill="#2563eb" fill-opacity="1.0"/>
<circle cx="855.62" cy="431.98" r="4" fill="#2563eb" fill-opacity="1.0"/>
<circle cx="965.00" cy="475.00" r="4" fill="#2563eb" fill-opacity="1.0"/>
<line x1="90.00" y1="505" x2="90.00" y2="511" stroke="#111827"/>
<text x="90.00" y="523" text-anchor="end" font-family="Arial, sans-serif" font-size="12" fill="#374151" transform="rotate(-35 90.00 523)">I</text>
<line x1="199.38" y1="505" x2="199.38" y2="511" stroke="#111827"/>
<text x="199.38" y="523" text-anchor="end" font-family="Arial, sans-serif" font-size="12" fill="#374151" transform="rotate(-35 199.38 523)"> will</text>
<line x1="308.75" y1="505" x2="308.75" y2="511" stroke="#111827"/>
<text x="308.75" y="523" text-anchor="end" font-family="Arial, sans-serif" font-size="12" fill="#374151" transform="rotate(-35 308.75 523)"> ignore</text>
<line x1="418.12" y1="505" x2="418.12" y2="511" stroke="#111827"/>
<text x="418.12" y="523" text-anchor="end" font-family="Arial, sans-serif" font-size="12" fill="#374151" transform="rotate(-35 418.12 523)"> the</text>
<line x1="527.50" y1="505" x2="527.50" y2="511" stroke="#111827"/>
<text x="527.50" y="523" text-anchor="end" font-family="Arial, sans-serif" font-size="12" fill="#374151" transform="rotate(-35 527.50 523)"> restrictions</text>
<line x1="636.88" y1="505" x2="636.88" y2="511" stroke="#111827"/>
<text x="636.88" y="523" text-anchor="end" font-family="Arial, sans-serif" font-size="12" fill="#374151" transform="rotate(-35 636.88 523)"> and</text>
<line x1="746.25" y1="505" x2="746.25" y2="511" stroke="#111827"/>
<text x="746.25" y="523" text-anchor="end" font-family="Arial, sans-serif" font-size="12" fill="#374151" transform="rotate(-35 746.25 523)"> answer</text>
<line x1="855.62" y1="505" x2="855.62" y2="511" stroke="#111827"/>
<text x="855.62" y="523" text-anchor="end" font-family="Arial, sans-serif" font-size="12" fill="#374151" transform="rotate(-35 855.62 523)"> directly</text>
<line x1="965.00" y1="505" x2="965.00" y2="511" stroke="#111827"/>
<text x="965.00" y="523" text-anchor="end" font-family="Arial, sans-serif" font-size="12" fill="#374151" transform="rotate(-35 965.00 523)">:</text>
<text x="527.5" y="596" text-anchor="middle" font-family="Arial, sans-serif" font-size="14" fill="#111827">Prefill token index</text>
</svg>
