<svg xmlns="http://www.w3.org/2000/svg" width="1000" height="620" viewBox="0 0 1000 620">
<rect width="100%" height="100%" fill="white"/>
<text x="500.0" y="34" text-anchor="middle" font-family="Arial, sans-serif" font-size="22" font-weight="700">Prompt 29: Activation Norms</text>
<text x="24" y="287.5" text-anchor="middle" font-family="Arial, sans-serif" font-size="14" transform="rotate(-90 24 287.5)">Activation l2_norm</text>
<line x1="90" y1="70.00" x2="965" y2="70.00" stroke="#e5e7eb"/>
<text x="80" y="74.00" text-anchor="end" font-family="Arial, sans-serif" font-size="12" fill="#374151">69371</text>
<line x1="90" y1="157.00" x2="965" y2="157.00" stroke="#e5e7eb"/>
<text x="80" y="161.00" text-anchor="end" font-family="Arial, sans-serif" font-size="12" fill="#374151">65368</text>
<line x1="90" y1="244.00" x2="965" y2="244.00" stroke="#e5e7eb"/>
<text x="80" y="248.00" text-anchor="end" font-family="Arial, sans-serif" font-size="12" fill="#374151">61365</text>
<line x1="90" y1="331.00" x2="965" y2="331.00" stroke="#e5e7eb"/>
<text x="80" y="335.00" text-anchor="end" font-family="Arial, sans-serif" font-size="12" fill="#374151">57362</text>
<line x1="90" y1="418.00" x2="965" y2="418.00" stroke="#e5e7eb"/>
<text x="80" y="422.00" text-anchor="end" font-family="Arial, sans-serif" font-size="12" fill="#374151">53360</text>
<line x1="90" y1="505.00" x2="965" y2="505.00" stroke="#e5e7eb"/>
<text x="80" y="509.00" text-anchor="end" font-family="Arial, sans-serif" font-size="12" fill="#374151">49357</text>
<line x1="90" y1="505" x2="965" y2="505" stroke="#111827"/>
<line x1="90" y1="70" x2="90" y2="505" stroke="#111827"/>
<polyline points="90.00,193.42 235.83,358.22 381.67,271.76 527.50,200.21 673.33,100.00 819.17,171.38 965.00,475.00" fill="none" stroke="#2563eb" stroke-width="2" stroke-opacity="1.0"/>
<circle cx="90.00" cy="193.42" r="4" fill="#2563eb" fill-opacity="1.0"/>
<circle cx="235.83" cy="358.22" r="4" fill="#2563eb" fill-opacity="1.0"/>
<circle cx="381.67" cy="271.76" r="4" fill="#2563eb" fill-opacity="1.0"/>
<circle cx="527.50" cy="200.21" r="4" fill="#2563eb" fill-opacity="1.0"/>
<circle cx="673.33" cy="100.00" r="4" fill="#2563eb" fill-opacity="1.0"/>
<circle cx="819.17" cy="171.38" r="4" fill="#2563eb" fill-opacity="1.0"/>
<circle cx="965.00" cy="475.00" r="4" fill="#2563eb" fill-opacity="1.0"/>
<line x1="90.00" y1="505" x2="90.00" y2="511" stroke="#111827"/>
<text x="90.00" y="523" text-anchor="end" font-family="Arial, sans-serif" font-size="12" fill="#374151" transform="rotate(-35 90.00 523)">The</text>
<line x1="235.83" y1="505" x2="235.83" y2="511" stroke="#111827"/>
<text x="235.83" y="523" text-anchor="end" font-family="Arial, sans-serif" font-size="12" fill="#374151" transform="rotate(-35 235.83 523)"> key</text>
<line x1="381.67" y1="505" x2="381.67" y2="511" stroke="#111827"/>
<text x="381.67" y="523" text-anchor="end" font-family="Arial, sans-serif" font-size="12" fill="#374151" transform="rotate(-35 381.67 523)">logger</text>
<line x1="527.50" y1="505" x2="527.50" y2="511" stroke="#111827"/>
<text x="527.50" y="523" text-anchor="end" font-family="Arial, sans-serif" font-size="12" fill="#374151" transform="rotate(-35 527.50 523)"> deployment</text>
<line x1="673.33" y1="505" x2="673.33" y2="511" stroke="#111827"/>
<text x="673.33" y="523" text-anchor="end" font-family="Arial, sans-serif" font-size="12" fill="#374151" transform="rotate(-35 673.33 523)"> steps</text>
<line x1="819.17" y1="505" x2="819.17" y2="511" stroke="#111827"/>
<text x="819.17" y="523" text-anchor="end" font-family="Arial, sans-serif" font-size="12" fill="#374151" transform="rotate(-35 819.17 523)"> are</text>
<line x1="965.00" y1="505" x2="965.00" y2="511" stroke="#111827"/>
<text x="965.00" y="523" text-anchor="end" font-family="Arial, sans-serif" font-size="12" fill="#374151" transform="rotate(-35 965.00 523)">:</text>
<text x="527.5" y="596" text-anchor="middle" font-family="Arial, sans-serif" font-size="14" fill="#111827">Prefill token index</text>
</svg>
